{
	"asset":{
		"version":"2.0",
		"generator":"Created using the official Cinema 4D glTF Exporter 1.000x284978"
	},
	"scenes":[{
		"nodes":[0]
	}],
	"nodes":[{
		"name":"Robot body.1",
		"translation":[-28.859046936035158,
		209.06227111816407,
		35.419097900390628],
		"rotation":[0.0,
		0.0,
		0.0,
		-1.0],
		"scale":[1.0,
		1.0,
		1.0],
		"mesh":0
	}],
	"meshes":[{
		"name":"Robot body.1",
		"primitives":[{
			"attributes":{
				"POSITION":1,
				"NORMAL":2,
				"TEXCOORD_0":3
			},
			"indices":0
		}]
	}],
	"accessors":[{
		"bufferView":0,
		"type":"SCALAR",
		"count":36828,
		"componentType":5123,
		"byteOffset":0,
		"min":[0],
		"max":[7698]
	},
	{
		"bufferView":1,
		"type":"VEC3",
		"count":7699,
		"componentType":5126,
		"byteOffset":0,
		"min":[-153.01040649414063,
		-207.8043975830078,
		-98.84579467773438],
		"max":[152.2217254638672,
		217.77227783203126,
		44.6124153137207]
	},
	{
		"bufferView":1,
		"type":"VEC3",
		"count":7699,
		"componentType":5126,
		"byteOffset":12,
		"min":[-0.9999765753746033,
		-0.9999505281448364,
		-0.999973475933075],
		"max":[0.9999727010726929,
		0.9999502301216126,
		0.9999617338180542]
	},
	{
		"bufferView":1,
		"type":"VEC2",
		"count":7699,
		"componentType":5126,
		"byteOffset":24,
		"min":[0.0,
		0.0],
		"max":[1.0,
		1.0]
	}],
	"bufferViews":[{
		"buffer":0,
		"byteOffset":0,
		"byteLength":73656,
		"target":34963
	},
	{
		"buffer":0,
		"byteOffset":73656,
		"byteLength":246368,
		"target":34962,
		"byteStride":32
	}],
	"buffers":[{
		"uri":"data:application/octet-stream;base64,",
		"byteLength":320024
	}]
}