{"accessors":[{"bufferView":0,"componentType":5123,"count":3972,"max":[3971],"min":[0],"name":"buffer-0-accessor-indices-buffer-0-mesh-0","type":"SCALAR"},{"bufferView":2,"componentType":5126,"count":3972,"max":[5.457709789276123,13.47416687011719,18.66208457946777],"min":[-32.33692932128906,0,-29.4191951751709],"name":"buffer-0-accessor-position-buffer-0-mesh-0","type":"VEC3"},{"bufferView":2,"byteOffset":47664,"componentType":5126,"count":3972,"max":[1,1,1],"min":[-1,-1,-1],"name":"buffer-0-accessor-normal-buffer-0-mesh-0","type":"VEC3"},{"bufferView":1,"componentType":5126,"count":3972,"max":[0.9829310178756714,0],"min":[0,-0.9731569886207581],"name":"buffer-0-accessor-texcoord-buffer-0-mesh-0","type":"VEC2"},{"bufferView":3,"componentType":5126,"count":0,"max":[0,0,0,0],"min":[0,0,0,0],"name":"buffer-0-accessor-color-buffer-0-mesh-0","type":"VEC4"}],"asset":{"extras":{"GOOGLE_processor_version":294144208},"generator":"Obj2GltfConverter","version":"2.0"},"bufferViews":[{"buffer":0,"byteLength":7944,"byteStride":0,"name":"buffer-0-bufferview-ushort","target":34963},{"buffer":0,"byteLength":31776,"byteOffset":7944,"byteStride":8,"name":"buffer-0-bufferview-vec2","target":34962},{"buffer":0,"byteLength":95328,"byteOffset":39720,"byteStride":12,"name":"buffer-0-bufferview-vec3","target":34962},{"buffer":0,"byteLength":1,"name":"buffer-0-bufferview-vec4"}],"buffers":[{"byteLength":135056,"name":"buffer-0","uri":"data:application/octet-stream;base64,"}],"cameras":[{"perspective":{"yfov":0.7853981633974483,"znear":0.1000000014901161},"type":"perspective"}],"extensions":{"KHR_lights_punctual":{"lights":[{"color":[1,0.9333333333333333,0.8666666666666667],"intensity":0.25,"name":"headLight","type":"directional"},{"color":[1,0.9333333333333333,0.8666666666666667],"intensity":0.324999988079071,"name":"keyLight","type":"directional"}]}},"extensionsUsed":["GOOGLE_backgrounds","GOOGLE_camera_settings","KHR_lights_punctual"],"extras":{"GOOGLE_initial_camera_motion":{"motionPath":"FULL_ROTATION"},"GOOGLE_lighting_rig":{"disableShadows":false}},"images":[{"mimeType":"image/png","name":"SpaceProbe_mat-image","uri":"data:application/octet-stream;base64,"}],"materials":[{"doubleSided":true,"name":"SpaceProbe_mat","pbrMetallicRoughness":{"baseColorFactor":[0.5,0.5,0.5,1],"baseColorTexture":{"index":0},"metallicFactor":0,"roughnessFactor":0.9699476628648295}}],"meshes":[{"name":"buffer-0-mesh-0","primitives":[{"attributes":{"NORMAL":2,"POSITION":1,"TEXCOORD_0":3},"indices":0,"material":0}]}],"nodes":[{"mesh":0,"name":"node-0"},{"children":[2]},{"children":[3],"extras":{"isTransformNode":1},"translation":[-3.472885624846262,8.081252371037685,-0.5679155304339458]},{"children":[0],"translation":[3.472885624846262,-8.081252371037685,0.5679155304339458]},{"camera":0,"children":[5],"rotation":[-0.221924054279278,-0.2518950318538155,-0.05946428056213487,0.9400864887853889],"translation":[-32.20027568797535,35.57493154677955,47.38028566465016]},{"extensions":{"KHR_lights_punctual":{"light":0}},"extras":{"isHeadLight":1},"name":"headLightNode","translation":[-32.9053925655176,16.4526962827588,16.4526962827588]},{"extensions":{"KHR_lights_punctual":{"light":1}},"extras":{"isKeyLight":1},"name":"keyLightNode","rotation":[-0.7505326882858236,-0.3752663441429118,0,0.5439447166468927],"scale":[0,0,33.23444649117278],"translation":[-37.02357612313425,73.24919994727816,-34.70987407255721]}],"samplers":[{"name":"SpaceProbe_mat-sampler","wrapS":10497,"wrapT":10497}],"scene":0,"scenes":[{"extensions":{"GOOGLE_backgrounds":{"color":[0.2470588235294118,0.3176470588235294,0.7098039215686275]},"GOOGLE_camera_settings":{}},"extras":{"GOOGLE_camera_index":{"cameraIndex":0,"nodeIndex":4},"GOOGLE_geometry_data":{"stats":{"centroid":[-3.789129631961476,6.780306964932612,-1.475427581384439],"radius":32.9053925655176,"stdev":12.81282794135747},"visualCenterPoint":[-3.472885624846262,8.081252371037685,-0.5679155304339458]},"GOOGLE_hemi_light":{"groundColor":[0.2470588235294118,0.3176470588235294,0.7098039215686275]}},"name":"scene-0","nodes":[1,4,6]}],"textures":[{"name":"SpaceProbe_mat-texture","sampler":0,"source":0}]}