{
   "accessors" : [
      {
         "bufferView" : 0,
         "byteOffset" : 0,
         "componentType" : 5123,
         "count" : 98301,
         "max" : [ 65534 ],
         "min" : [ 0 ],
         "name" : "buffer-0-group-0-mesh-0-indices",
         "type" : "SCALAR"
      },
      {
         "bufferView" : 2,
         "byteOffset" : 0,
         "componentType" : 5126,
         "count" : 65535,
         "max" : [ 0.9436969757080078, 0.9350349903106689, 0.8718630075454712 ],
         "min" : [ 0, -0.9543049931526184, -0.943697988986969 ],
         "name" : "buffer-0-group-0-mesh-0-position",
         "type" : "VEC3"
      },
      {
         "bufferView" : 2,
         "byteOffset" : 786420,
         "componentType" : 5126,
         "count" : 65535,
         "max" : [ 0.9998999834060669, 1, 0.9821000099182129 ],
         "min" : [ -0.4111000001430511, -0.9973999857902527, -0.9998999834060669 ],
         "name" : "buffer-0-group-0-mesh-0-normal",
         "type" : "VEC3"
      },
      {
         "bufferView" : 1,
         "byteOffset" : 0,
         "componentType" : 5126,
         "count" : 65535,
         "max" : [ 0.6870999932289124, 0 ],
         "min" : [ 0, -0.9742000102996826 ],
         "name" : "buffer-0-group-0-mesh-0-texcoord",
         "type" : "VEC2"
      },
      {
         "bufferView" : 0,
         "byteOffset" : 196602,
         "componentType" : 5123,
         "count" : 98298,
         "max" : [ 65533 ],
         "min" : [ 0 ],
         "name" : "buffer-0-group-0-mesh-1-indices",
         "type" : "SCALAR"
      },
      {
         "bufferView" : 2,
         "byteOffset" : 1572840,
         "componentType" : 5126,
         "count" : 65534,
         "max" : [ 0.66764897108078, 0.9350349903106689, 0.9436969757080078 ],
         "min" : [ -0.9436969757080078, -0.9553269743919373, -0.3616839945316315 ],
         "name" : "buffer-0-group-0-mesh-1-position",
         "type" : "VEC3"
      },
      {
         "bufferView" : 2,
         "byteOffset" : 2359248,
         "componentType" : 5126,
         "count" : 65534,
         "max" : [ 0.9984999895095825, 0.9998999834060669, 0.9998999834060669 ],
         "min" : [ -0.9998999834060669, -0.9980000257492065, -0.5224000215530396 ],
         "name" : "buffer-0-group-0-mesh-1-normal",
         "type" : "VEC3"
      },
      {
         "bufferView" : 1,
         "byteOffset" : 524280,
         "componentType" : 5126,
         "count" : 65534,
         "max" : [ 0.9991000294685364, 0 ],
         "min" : [ 0, -0.9742000102996826 ],
         "name" : "buffer-0-group-0-mesh-1-texcoord",
         "type" : "VEC2"
      },
      {
         "bufferView" : 0,
         "byteOffset" : 393198,
         "componentType" : 5123,
         "count" : 103212,
         "max" : [ 65535 ],
         "min" : [ 0 ],
         "name" : "buffer-0-group-0-mesh-2-indices",
         "type" : "SCALAR"
      },
      {
         "bufferView" : 2,
         "byteOffset" : 3145656,
         "componentType" : 5126,
         "count" : 65536,
         "max" : [ 0.2608569860458374, 0.9747459888458252, 0.2559700012207031 ],
         "min" : [ -0.873179018497467, -0.9855419993400574, -0.943697988986969 ],
         "name" : "buffer-0-group-0-mesh-2-position",
         "type" : "VEC3"
      },
      {
         "bufferView" : 2,
         "byteOffset" : 3932088,
         "componentType" : 5126,
         "count" : 65536,
         "max" : [ 0.517799973487854, 1, 0.3258000016212463 ],
         "min" : [ -0.9506000280380249, -0.9927999973297119, -0.9998999834060669 ],
         "name" : "buffer-0-group-0-mesh-2-normal",
         "type" : "VEC3"
      },
      {
         "bufferView" : 1,
         "byteOffset" : 1048552,
         "componentType" : 5126,
         "count" : 65536,
         "max" : [ 0.9991000294685364, 0 ],
         "min" : [ 0, -0.9900000095367432 ],
         "name" : "buffer-0-group-0-mesh-2-texcoord",
         "type" : "VEC2"
      },
      {
         "bufferView" : 0,
         "byteOffset" : 599622,
         "componentType" : 5123,
         "count" : 44253,
         "max" : [ 29439 ],
         "min" : [ 0 ],
         "name" : "buffer-0-group-0-mesh-3-indices",
         "type" : "SCALAR"
      },
      {
         "bufferView" : 2,
         "byteOffset" : 4718520,
         "componentType" : 5126,
         "count" : 29440,
         "max" : [ 0.2608569860458374, 0, 0.2609319984912872 ],
         "min" : [ -0.2614049911499023, -0.9957939982414246, -0.2626399993896484 ],
         "name" : "buffer-0-group-0-mesh-3-position",
         "type" : "VEC3"
      },
      {
         "bufferView" : 2,
         "byteOffset" : 5071800,
         "componentType" : 5126,
         "count" : 29440,
         "max" : [ 0.8482000231742859, 0, 0.8305000066757202 ],
         "min" : [ -0.8748000264167786, -1, -0.9118000268936157 ],
         "name" : "buffer-0-group-0-mesh-3-normal",
         "type" : "VEC3"
      },
      {
         "bufferView" : 1,
         "byteOffset" : 1572840,
         "componentType" : 5126,
         "count" : 29440,
         "max" : [ 0.9991000294685364, 0 ],
         "min" : [ 0, -0.08730000257492065 ],
         "name" : "buffer-0-group-0-mesh-3-texcoord",
         "type" : "VEC2"
      },
      {
         "bufferView" : 0,
         "byteOffset" : 688128,
         "componentType" : 5123,
         "count" : 17664,
         "max" : [ 2945 ],
         "min" : [ 0 ],
         "name" : "buffer-0-group-1-mesh-0-indices",
         "type" : "SCALAR"
      },
      {
         "bufferView" : 2,
         "byteOffset" : 5425080,
         "componentType" : 5126,
         "count" : 2946,
         "max" : [ 1.018991947174072, 1.049381017684937, 1.018990993499756 ],
         "min" : [ -1.018991947174072, -1.049381017684937, -1.018993020057678 ],
         "name" : "buffer-0-group-1-mesh-0-position",
         "type" : "VEC3"
      },
      {
         "bufferView" : 2,
         "byteOffset" : 5460432,
         "componentType" : 5126,
         "count" : 2946,
         "max" : [ 1, 1, 1 ],
         "min" : [ -1, -1, -1 ],
         "name" : "buffer-0-group-1-mesh-0-normal",
         "type" : "VEC3"
      }
   ],
   "asset" : {
      "extras" : {
         "GOOGLE_processor_version" : 294144208
      },
      "generator" : "Obj2GltfConverter",
      "version" : "2.0"
   },
   "bufferViews" : [
      {
         "buffer" : 0,
         "byteLength" : 723456,
         "byteOffset" : 0,
         "byteStride" : 0,
         "name" : "buffer-0-bufferview-ushort",
         "target" : 34963
      },
      {
         "buffer" : 0,
         "byteLength" : 1808360,
         "byteOffset" : 723456,
         "byteStride" : 8,
         "name" : "buffer-0-bufferview-vec2",
         "target" : 34962
      },
      {
         "buffer" : 0,
         "byteLength" : 5495784,
         "byteOffset" : 2531820,
         "byteStride" : 12,
         "name" : "buffer-0-bufferview-vec3",
         "target" : 34962
      },
      {
         "buffer" : 0,
         "byteLength" : 1,
         "byteOffset" : 0,
         "name" : "buffer-0-bufferview-vec4"
      }
   ],
   "buffers" : [
      {
         "byteLength" : 8027604,
         "name" : "buffer-0",
         "uri" : "earth_obj.bin"
      }
   ],
   "cameras" : [
      {
         "perspective" : {
            "yfov" : 0.7853981633974483,
            "znear" : 0.1000000014901161
         },
         "type" : "perspective"
      }
   ],
   "extensions" : {
      "KHR_lights_punctual" : {
         "lights" : [
            {
               "color" : [ 1, 0.9333333333333333, 0.8666666666666667 ],
               "intensity" : 0.25,
               "name" : "headLight",
               "type" : "directional"
            },
            {
               "color" : [ 1, 0.9333333333333333, 0.8666666666666667 ],
               "intensity" : 0.324999988079071,
               "name" : "keyLight",
               "type" : "directional"
            }
         ]
      }
   },
   "extensionsUsed" : [ "GOOGLE_backgrounds", "GOOGLE_camera_settings", "KHR_lights_punctual" ],
   "extras" : {
      "GOOGLE_initial_camera_motion" : {
         "motionPath" : "FULL_ROTATION"
      },
      "GOOGLE_lighting_rig" : {
         "disableShadows" : false
      }
   },
   "images" : [
      {
         "mimeType" : "image/jpeg",
         "name" : "E2-image",
         "uri" : "earth_texture.jpg"
      }
   ],
   "materials" : [
      {
         "alphaMode" : "OPAQUE",
         "doubleSided" : true,
         "name" : "E2",
         "pbrMetallicRoughness" : {
            "baseColorFactor" : [ 0.64, 0.64, 0.64, 1 ],
            "baseColorTexture" : {
               "index" : 0,
               "texCoord" : 0
            },
            "metallicFactor" : 0,
            "roughnessFactor" : 0.7448017359246658
         }
      },
      {
         "alphaMode" : "BLEND",
         "doubleSided" : true,
         "name" : "atmosphere",
         "pbrMetallicRoughness" : {
            "baseColorFactor" : [ 0.013468, 0.338906, 0.405625, 0.2 ],
            "metallicFactor" : 0,
            "roughnessFactor" : 0.7448017359246658
         }
      }
   ],
   "meshes" : [
      {
         "name" : "buffer-0-mesh-0",
         "primitives" : [
            {
               "attributes" : {
                  "NORMAL" : 2,
                  "POSITION" : 1,
                  "TEXCOORD_0" : 3
               },
               "indices" : 0,
               "material" : 0,
               "mode" : 4
            },
            {
               "attributes" : {
                  "NORMAL" : 6,
                  "POSITION" : 5,
                  "TEXCOORD_0" : 7
               },
               "indices" : 4,
               "material" : 0,
               "mode" : 4
            },
            {
               "attributes" : {
                  "NORMAL" : 10,
                  "POSITION" : 9,
                  "TEXCOORD_0" : 11
               },
               "indices" : 8,
               "material" : 0,
               "mode" : 4
            },
            {
               "attributes" : {
                  "NORMAL" : 14,
                  "POSITION" : 13,
                  "TEXCOORD_0" : 15
               },
               "indices" : 12,
               "material" : 0,
               "mode" : 4
            },
            {
               "attributes" : {
                  "NORMAL" : 18,
                  "POSITION" : 17
               },
               "indices" : 16,
               "material" : 1,
               "mode" : 4
            }
         ]
      }
   ],
   "nodes" : [
      {
         "mesh" : 0,
         "name" : "node-0"
      },
      {
         "children" : [ 2 ]
      },
      {
         "children" : [ 3 ],
         "extras" : {
            "isTransformNode" : 1
         },
         "translation" : [ -0.005246905088424571, -0.005246905088424571, 0.005245891809463503 ]
      },
      {
         "children" : [ 0 ],
         "translation" : [ 0.005246905088424571, 0.005246905088424571, -0.005245891809463503 ]
      },
      {
         "camera" : 0,
         "children" : [ 5 ],
         "rotation" : [
            -0.1483376284352562,
            0.84021721335197,
            0.2855754844951205,
            0.4364374239597604
         ],
         "translation" : [ 1.375462943902649, 1.291791617626155, -0.9652123955720541 ]
      },
      {
         "extensions" : {
            "KHR_lights_punctual" : {
               "light" : 0
            }
         },
         "extras" : {
            "isHeadLight" : 1
         },
         "name" : "headLightNode",
         "translation" : [ -1.172462701809491, 0.5862313509047457, 0.5862313509047457 ]
      },
      {
         "extensions" : {
            "KHR_lights_punctual" : {
               "light" : 1
            }
         },
         "extras" : {
            "isKeyLight" : 1
         },
         "name" : "keyLightNode",
         "rotation" : [ -0.7505326882858236, -0.3752663441429118, 0, 0.5439447166468927 ],
         "scale" : [ 0, 0, 1.184187328827586 ],
         "translation" : [ -1.184136578117552, 2.351880536536373, -1.184491675893538 ]
      }
   ],
   "samplers" : [
      {
         "name" : "E2-sampler",
         "wrapS" : 10497,
         "wrapT" : 10497
      }
   ],
   "scene" : 0,
   "scenes" : [
      {
         "extensions" : {
            "GOOGLE_backgrounds" : {
               "color" : [ 0, 0, 0 ]
            },
            "GOOGLE_camera_settings" : {
               "pivot" : [ 0, 0, 0 ]
            }
         },
         "extras" : {
            "GOOGLE_camera_index" : {
               "cameraIndex" : 0,
               "nodeIndex" : 4
            },
            "GOOGLE_geometry_data" : {
               "stats" : {
                  "centroid" : [ 5.075071003446119e-05, -0.01649412111879948, -0.0003043470659516571 ],
                  "radius" : 1.172462701809491,
                  "stdev" : 0.9644134005882243
               },
               "visualCenterPoint" : [ -0.005246905088424571, -0.005246905088424571, 0.005245891809463503 ]
            },
            "GOOGLE_hemi_light" : {
               "groundColor" : [ 0, 0, 0 ]
            }
         },
         "name" : "scene-0",
         "nodes" : [ 1, 4, 6 ]
      }
   ],
   "textures" : [
      {
         "name" : "E2-texture",
         "sampler" : 0,
         "source" : 0
      }
   ]
}
